<?xml version="1.0" standalone="no"?><!DOCTYPE svg PUBLIC "-//W3C//DTD SVG 1.1//EN" "http://www.w3.org/Graphics/SVG/1.1/DTD/svg11.dtd"><svg t="1580869677265" class="icon" viewBox="0 0 1024 1024" version="1.1" xmlns="http://www.w3.org/2000/svg" p-id="2729" xmlns:xlink="http://www.w3.org/1999/xlink" width="32" height="32"><defs><style type="text/css"></style></defs><path d="M374.970252 884.0192L318.454761 997.050182a18.627491 18.627491 0 0 0 16.653963 26.949818h130.327273a18.627491 18.627491 0 0 0 16.653964-26.949818L430.396579 893.672727h-39.433309c-6.9632 0-12.8-3.984291-15.993018-9.653527zM632.999633 893.672727h-39.437963l-51.688727 103.377455a18.627491 18.627491 0 0 0 16.653963 26.949818h130.327273a18.627491 18.627491 0 0 0 16.653964-26.949818l-56.520146-113.030982c-3.188364 5.669236-9.029818 9.653527-15.988364 9.653527z" fill="#FFC0CB" p-id="2730"></path><path d="M955.824943 786.818327l-304.207128-267.445527V139.510691c0-76.930327-62.640873-139.510691-139.636363-139.510691s-139.636364 62.580364-139.636364 139.510691v379.8528l-304.211782 267.450182a18.618182 18.618182 0 0 0 12.288 32.605091h291.923782V875.054545c0 3.318691 1.098473 6.274327 2.625164 8.964655 3.193018 5.669236 9.029818 9.653527 15.993018 9.653527h242.036363c6.9632 0 12.8-3.984291 15.988364-9.653527 1.517382-2.690327 2.629818-5.645964 2.629818-8.964655v-55.635781h291.914473a18.613527 18.613527 0 0 0 12.292655-32.600437z m-826.028219-4.635927l240.807564-211.721309 2.964945 211.721309H129.796724z m382.184728-578.317964c-19.209309 0-37.413236-2.802036-51.237237-7.889454-28.318255-10.426182-32.544582-28.113455-32.544582-37.720437 0-46.201018 37.5808-83.781818 83.781819-83.781818s83.781818 37.5808 83.781818 83.781818c0 28.136727-32.1024 45.609891-83.781818 45.609891z m138.407563 578.317964l2.955637-211.721309 240.816872 211.721309h-243.772509z" fill="#FFC0CB" p-id="2731"></path><path d="M511.981452 74.472727c-46.201018 0-83.781818 37.5808-83.781819 83.781818 0 9.606982 4.226327 27.2896 32.544582 37.720437 13.824 5.087418 32.023273 7.889455 51.237237 7.889454 51.679418 0 83.781818-17.473164 83.781818-45.609891 0-46.201018-37.585455-83.781818-83.781818-83.781818z" fill="#FFC0CB" p-id="2732"></path><path d="M370.604288 570.461091l-240.807564 211.721309H373.569233zM650.389015 782.1824h243.772509l-240.816872-211.721309z" fill="#FFC0CB" p-id="2733"></path></svg>