<?xml version="1.0" standalone="no"?><!DOCTYPE svg PUBLIC "-//W3C//DTD SVG 1.1//EN" "http://www.w3.org/Graphics/SVG/1.1/DTD/svg11.dtd"><svg t="1581147592099" class="icon" viewBox="0 0 1024 1024" version="1.1" xmlns="http://www.w3.org/2000/svg" p-id="5271" xmlns:xlink="http://www.w3.org/1999/xlink" width="32" height="32"><defs><style type="text/css"></style></defs><path d="M682.666667 1006.08a545.706667 545.706667 0 0 1-74.666667-6.826667 616.533333 616.533333 0 0 0-93.013333-8.533333 772.693333 772.693333 0 0 0-85.333334 5.973333c-73.813333 7.68-150.186667 15.786667-220.586666-46.506666C106.666667 861.013333 21.333333 660.48 21.333333 512 21.333333 273.493333 186.453333 152.746667 512 152.746667c15.786667-34.133333 34.56-69.973333 56.746667-107.946667a42.666667 42.666667 0 0 1 73.813333 42.666667c-14.08 23.893333-26.453333 46.506667-37.546667 68.266666C869.546667 178.346667 1002.666667 298.666667 1002.666667 512a749.653333 749.653333 0 0 1-181.76 436.906667A187.306667 187.306667 0 0 1 682.666667 1006.08z m-167.68-100.693333a730.453333 730.453333 0 0 1 104.96 8.96c69.973333 9.813333 102.4 12.373333 142.08-26.453334A669.866667 669.866667 0 0 0 917.333333 512c0-110.933333-37.546667-256-347.733333-272.64a343.893333 343.893333 0 0 0-25.173333 116.906667 109.226667 109.226667 0 0 0 42.666666-27.306667 42.666667 42.666667 0 0 1 61.866667 58.88A189.013333 189.013333 0 0 1 369.493333 384a42.666667 42.666667 0 0 1 64.426667-56.32 99.84 99.84 0 0 0 25.173333 21.333333 399.786667 399.786667 0 0 1 20.906667-108.373333C146.346667 247.466667 106.666667 398.08 106.666667 512c0 123.306667 75.093333 301.653333 157.866666 374.186667 42.666667 35.84 81.066667 33.706667 155.306667 25.6a878.506667 878.506667 0 0 1 94.293333-6.4z" p-id="5272"></path></svg>