<?xml version="1.0" standalone="no"?><!DOCTYPE svg PUBLIC "-//W3C//DTD SVG 1.1//EN" "http://www.w3.org/Graphics/SVG/1.1/DTD/svg11.dtd"><svg t="1581145762456" class="icon" viewBox="0 0 1024 1024" version="1.1" xmlns="http://www.w3.org/2000/svg" p-id="4337" xmlns:xlink="http://www.w3.org/1999/xlink" width="32" height="32"><defs><style type="text/css"></style></defs><path d="M381.952 868.352c-22.016 0-41.984-14.336-48.64-36.352a50.5344 50.5344 0 0 1 34.304-62.464l229.888-67.072 19.456-88.576a51.2 51.2 0 0 1 23.04-32.256 243.456 243.456 0 0 0 117.248-209.408c0-135.168-110.08-245.248-245.248-245.248S266.752 236.544 266.752 372.224c0 86.016 46.08 166.912 120.32 211.456 24.064 14.336 31.744 45.056 17.408 69.12a50.176 50.176 0 0 1-69.12 17.408 348.5184 348.5184 0 0 1-169.984-297.984C165.376 181.248 321.024 25.6 512 25.6s346.624 155.648 346.624 346.624c0 114.176-54.784 218.624-146.944 283.136l-21.504 97.792c-4.096 17.92-17.408 32.256-35.328 37.888l-258.56 75.776c-4.608 1.024-9.728 1.536-14.336 1.536zM402.944 998.4c-22.016 0-41.984-14.336-48.64-36.352a50.5344 50.5344 0 0 1 34.304-62.464l258.56-75.776a50.5344 50.5344 0 0 1 62.464 34.304 50.5344 50.5344 0 0 1-34.304 62.464l-258.56 75.776c-4.608 1.536-9.216 2.048-13.824 2.048z" fill="#2c2c2c" p-id="4338"></path></svg>