<?xml version="1.0" standalone="no"?><!DOCTYPE svg PUBLIC "-//W3C//DTD SVG 1.1//EN" "http://www.w3.org/Graphics/SVG/1.1/DTD/svg11.dtd"><svg t="1576159717413" class="icon" viewBox="0 0 1024 1024" version="1.1" xmlns="http://www.w3.org/2000/svg" p-id="4953" xmlns:xlink="http://www.w3.org/1999/xlink" width="32" height="32"><defs><style type="text/css"></style></defs><path d="M844.16 372.48c0 72.384-34.368 129.792-95.104 165.12-34.176 30.528-55.296 51.52-61.44 60.352-14.208 20.608-15.232 28.416-10.752 44.16 1.28 4.544 30.72 16.128 94.08 30.976l21.184 4.992c82.048 19.328 119.936 32.96 145.28 61.44 50.432 56.704 76.352 117.248 76.352 170.432 0 53.248-40.192 101.76-84.928 101.76h-832c-41.408 0-96.128-60.992-84.992-108.992 11.648-50.24 17.728-70.528 35.456-104.192a239.36 239.36 0 0 1 61.44-76.416c27.392-22.016 64.64-34.176 131.2-48.448 7.488-1.536 33.536-7.04 32.768-6.784 54.4-11.456 80.64-21.504 80.512-20.928 2.944-19.328 0.256-27.52-11.264-40.512-4.096-4.544-24-24.448-28.48-29.184a606.848 606.848 0 0 1-31.552-37.76c-65.536-37.76-99.84-94.208-99.84-166.016 0-51.2 13.696-88.448 43.264-105.6 7.936-169.472 107.52-257.472 288-254.464 179.968 2.944 280.512 90.688 291.52 255.296 27.2 17.472 39.232 54.208 39.232 104.768zM96.768 947.648h832c6.464 0 20.928-17.408 20.928-37.696 0-36.48-19.584-82.304-60.16-127.936-12.608-14.08-45.44-25.92-112.128-41.6-10.56-2.56-10.56-2.56-21.184-4.992-96.96-22.784-129.6-35.584-140.992-75.904-9.472-33.344-5.952-60.928 19.712-97.984 10.048-14.528 33.28-37.568 76.416-75.328 46.72-27.712 68.672-64.448 68.672-113.728 0-36.992-6.208-50.56-12.352-51.712l-25.408-4.864-0.512-25.92c-2.944-142.848-75.648-211.072-229.504-213.568-152.96-2.56-223.488 64.896-223.488 212.928v27.2l-26.88 4.416c-9.152 1.472-15.872 14.528-15.872 51.52 0 49.856 23.04 86.336 72.32 113.152l9.92 8.384c14.464 18.496 25.152 31.36 31.68 38.272 3.264 3.456 24.192 24.32 29.76 30.72 23.744 26.688 32.64 53.76 26.688 92.672-6.528 42.368-37.376 54.272-130.624 73.792l-32.512 6.784c-56.32 12.032-87.808 22.4-104.384 35.712a176 176 0 0 0-44.992 56.32c-14.272 27.136-19.328 44.032-29.76 88.96-1.344 5.888 20.672 30.4 22.656 30.4z" fill="#ffffff" p-id="4954"></path></svg>